<svg xmlns="http://www.w3.org/2000/svg" viewBox="14 290 2428 300">
  <defs>
    <mask id="gh"><rect x="-100" y="-100" width="200" height="200" fill="white"/><circle r="21.7" fill="black"/></mask>
  </defs>
  <!-- MAGIC -->
  <!-- M -->
  <path d="M1191 750V0H969V664L1015 659L744 0H512L240 657L286 663V0H65V750H424L671 123H586L831 750Z" transform="translate(0,535) scale(0.26,-0.26)" fill="#FFFFFF"/>
  <!-- A -->
  <path d="M563 0 536 204 564 286 536 367 563 573H801L763 287L801 0ZM614 286Q602 195 561.5 126.5Q521 58 457.5 20.5Q394 -17 312 -17Q229 -17 165.0 21.0Q101 59 65.5 127.5Q30 196 30 286Q30 378 65.5 446.5Q101 515 165.0 552.5Q229 590 312 590Q394 590 457.5 553.0Q521 516 562.0 447.5Q603 379 614 286ZM261 286Q261 248 276.5 219.0Q292 190 320.0 173.0Q348 156 384 156Q421 156 455.0 173.0Q489 190 515.0 219.0Q541 248 553 286Q541 324 515.0 353.5Q489 383 455.0 400.0Q421 417 384 417Q348 417 320.0 400.0Q292 383 276.5 353.5Q261 324 261 286Z" transform="translate(326.3,535) scale(0.26,-0.26)" fill="#FFFFFF"/>
  <!-- G -->
  <path d="M545 145V241L553 267V418L545 439V573H775V153Q775 48 725.0 -27.0Q675 -102 584.5 -142.0Q494 -182 371 -182Q290 -182 221.5 -161.5Q153 -141 84 -100V69Q146 24 215.5 2.5Q285 -19 356 -19Q448 -19 496.5 19.0Q545 57 545 145ZM309 66Q228 66 164.5 98.5Q101 131 64.5 190.0Q28 249 28 328Q28 407 64.5 466.0Q101 525 164.5 557.5Q228 590 309 590Q371 590 421.0 571.5Q471 553 510.0 522.0Q549 491 575.0 455.5Q601 420 614.5 385.5Q628 351 628 325Q628 290 607.0 245.5Q586 201 545.5 160.0Q505 119 445.5 92.5Q386 66 309 66ZM389 219Q443 219 484.5 246.5Q526 274 553 328Q525 383 483.5 410.0Q442 437 389 437Q349 437 319.5 424.0Q290 411 274.0 386.5Q258 362 258 328Q258 295 273.5 270.5Q289 246 318.5 232.5Q348 219 389 219Z" transform="translate(544.4,535) scale(0.26,-0.26)" fill="#FFFFFF"/>
  <!-- I stem -->
  <path d="M52 584 167 560 281 584V0H52Z" transform="translate(758.9,535) scale(0.26,-0.26)" fill="#FFFFFF"/>
  <!-- Star on the I -->
  <polygon points="802,398.5 816.1,357.8 857.9,357.8 822.6,333.7 836.7,292.5 802,317.2 767.2,292.5 781.3,333.7 746,357.8 787.8,357.8" fill="#FFFFFF"/>
  <!-- C -->
  <path d="M752 247Q744 168 695.0 108.5Q646 49 567.5 16.0Q489 -17 391 -17Q284 -17 201.5 21.0Q119 59 73.0 128.0Q27 197 27 286Q27 377 73.0 445.0Q119 513 201.5 551.5Q284 590 391 590Q489 590 567.5 557.0Q646 524 695.0 465.0Q744 406 752 326H525Q515 373 479.0 397.5Q443 422 391 422Q351 422 321.0 406.5Q291 391 275.0 360.5Q259 330 259 286Q259 242 275.0 212.0Q291 182 321.0 166.5Q351 151 391 151Q443 151 479.0 177.5Q515 204 525 247Z" transform="translate(845.8,535) scale(0.26,-0.26)" fill="#FFFFFF"/>
  <!-- FACTORY -->
  <!-- F -->
  <path d="M178 450H725V255H178ZM744 750V555H189L298 662V0H65V750Z" transform="translate(1091.3,535) scale(0.26,-0.26)" fill="#FFFFFF"/>
  <!-- A -->
  <path d="M563 0 536 204 564 286 536 367 563 573H801L763 287L801 0ZM614 286Q602 195 561.5 126.5Q521 58 457.5 20.5Q394 -17 312 -17Q229 -17 165.0 21.0Q101 59 65.5 127.5Q30 196 30 286Q30 378 65.5 446.5Q101 515 165.0 552.5Q229 590 312 590Q394 590 457.5 553.0Q521 516 562.0 447.5Q603 379 614 286ZM261 286Q261 248 276.5 219.0Q292 190 320.0 173.0Q348 156 384 156Q421 156 455.0 173.0Q489 190 515.0 219.0Q541 248 553 286Q541 324 515.0 353.5Q489 383 455.0 400.0Q421 417 384 417Q348 417 320.0 400.0Q292 383 276.5 353.5Q261 324 261 286Z" transform="translate(1294.4,535) scale(0.26,-0.26)" fill="#FFFFFF"/>
  <!-- C -->
  <path d="M752 247Q744 168 695.0 108.5Q646 49 567.5 16.0Q489 -17 391 -17Q284 -17 201.5 21.0Q119 59 73.0 128.0Q27 197 27 286Q27 377 73.0 445.0Q119 513 201.5 551.5Q284 590 391 590Q489 590 567.5 557.0Q646 524 695.0 465.0Q744 406 752 326H525Q515 373 479.0 397.5Q443 422 391 422Q351 422 321.0 406.5Q291 391 275.0 360.5Q259 330 259 286Q259 242 275.0 212.0Q291 182 321.0 166.5Q351 151 391 151Q443 151 479.0 177.5Q515 204 525 247Z" transform="translate(1512.5,535) scale(0.26,-0.26)" fill="#FFFFFF"/>
  <!-- T -->
  <path d="M6 405V504L120 556L220 728H350V573H582V405H350V262Q350 204 372.5 180.0Q395 156 461 156Q502 156 534.0 162.5Q566 169 592 179V10Q560 0 511.0 -8.5Q462 -17 408 -17Q310 -17 246.5 13.0Q183 43 151.5 99.0Q120 155 120 231V405Z" transform="translate(1713.8,535) scale(0.26,-0.26)" fill="#FFFFFF"/>
  <!-- Gear (O) -->
  <g transform="translate(1978.9,459.6)">
    <g fill="#FFFFFF">
      <rect x="-15.8" y="-90.9" width="31.6" height="27.7" rx="5.9" transform="rotate(0)"/>
      <rect x="-15.8" y="-90.9" width="31.6" height="27.7" rx="5.9" transform="rotate(45)"/>
      <rect x="-15.8" y="-90.9" width="31.6" height="27.7" rx="5.9" transform="rotate(90)"/>
      <rect x="-15.8" y="-90.9" width="31.6" height="27.7" rx="5.9" transform="rotate(135)"/>
      <rect x="-15.8" y="-90.9" width="31.6" height="27.7" rx="5.9" transform="rotate(180)"/>
      <rect x="-15.8" y="-90.9" width="31.6" height="27.7" rx="5.9" transform="rotate(225)"/>
      <rect x="-15.8" y="-90.9" width="31.6" height="27.7" rx="5.9" transform="rotate(270)"/>
      <rect x="-15.8" y="-90.9" width="31.6" height="27.7" rx="5.9" transform="rotate(315)"/>
      <circle r="67.2" mask="url(#gh)"/>
    </g>
  </g>
  <!-- R -->
  <path d="M25 573H259L293 370V0H64V377ZM554 584V389Q522 395 495.5 397.5Q469 400 447 400Q406 400 371.0 384.5Q336 369 314.5 331.5Q293 294 293 228L251 280Q260 342 275.5 397.5Q291 453 318.0 496.5Q345 540 385.5 565.0Q426 590 485 590Q501 590 518.0 588.5Q535 587 554 584Z" transform="translate(2083.0,535) scale(0.26,-0.26)" fill="#FFFFFF"/>
  <!-- Y -->
  <path d="M257 -182Q189 -182 137.5 -165.5Q86 -149 36 -113V43Q86 11 129.0 -3.0Q172 -17 223 -17Q265 -17 296.5 1.0Q328 19 349 68L556 573H799L531 -2Q500 -69 455.5 -109.0Q411 -149 360.0 -165.5Q309 -182 257 -182ZM244 65 8 573H260L464 65Z" transform="translate(2230.9,535) scale(0.26,-0.26)" fill="#FFFFFF"/>
</svg>
